<svg width="40" height="40" viewBox="0 0 40 40" fill="none" xmlns="http://www.w3.org/2000/svg">
<g clip-path="url(#clip0_324_9)">
<mask id="mask0_324_9" style="mask-type:alpha" maskUnits="userSpaceOnUse" x="-1" y="0" width="42" height="38">
<path d="M-0.0856934 0.00762939H40.0568V37.9585H-0.0856934V0.00762939Z" fill="white"/>
</mask>
<g mask="url(#mask0_324_9)">
<path d="M19.9855 37.9485L19.5598 37.6402C19.5116 37.6065 14.6224 34.0432 9.80547 29.1192C6.96331 26.2069 4.69136 23.3978 3.05297 20.7601C0.973622 17.3857 -0.0856934 14.2603 -0.0856934 11.4849C-0.0856934 5.16449 4.73951 0.0172119 10.6639 0.0172119C12.8643 0.0172119 14.9918 0.737021 16.8063 2.10715C18.1229 3.10085 19.1987 4.36845 19.9855 5.82426C20.7724 4.35968 21.8482 3.09208 23.1648 2.10715C24.9793 0.737021 27.1068 0.0172119 29.3065 0.0172119C35.2316 0.0172119 40.0568 5.16449 40.0568 11.4849V11.4937C40.0327 14.2515 38.9645 17.3513 36.8776 20.7176C35.2392 23.3553 32.9755 26.1644 30.1333 29.0848C25.3246 34.0263 20.4588 37.6065 20.4107 37.6402L19.9855 37.9485ZM10.6639 1.61874C5.56631 1.61874 1.41521 6.04688 1.41521 11.4849C1.41521 13.9432 2.3871 16.761 4.30552 19.8609C5.87105 22.3961 8.07078 25.1195 10.8331 27.9454C14.7428 31.9452 18.7089 35.0369 19.9855 35.9962C21.2622 35.0281 25.2036 31.9195 29.1057 27.9117C31.8598 25.077 34.0512 22.3616 35.625 19.8265C37.5434 16.7266 38.5312 13.9256 38.547 11.4849C38.547 6.04688 34.3965 1.62751 29.2983 1.62751C25.5172 1.62751 22.0567 4.17956 20.6755 7.98233L19.9773 9.91779L19.2867 7.98233C17.9062 4.17956 14.4457 1.61874 10.6639 1.61874Z" fill="black"/>
</g>
</g>
<defs>
<clipPath id="clip0_324_9">
<rect width="40" height="39.0909" fill="white"/>
</clipPath>
</defs>
</svg>
