<svg width="45" height="44" viewBox="0 0 45 44" fill="none" xmlns="http://www.w3.org/2000/svg">
<g clip-path="url(#clip0_322_66)">
<path d="M22.5286 10.9796C17.65 10.9796 13.6943 14.8225 13.6943 19.5628C13.6943 24.3031 17.65 28.146 22.5286 28.146C27.4072 28.146 31.3619 24.3031 31.3619 19.5628C31.3619 14.8225 27.4072 10.9796 22.5286 10.9796Z" fill="black"/>
<mask id="mask0_322_66" style="mask-type:alpha" maskUnits="userSpaceOnUse" x="0" y="0" width="45" height="44">
<path d="M0.444336 0.349854H44.611V43.2991H0.444336V0.349854Z" fill="white"/>
</mask>
<g mask="url(#mask0_322_66)">
<path d="M37.2002 36.6376C35.2431 32.2201 31.1365 29.4572 22.5148 29.4572C13.905 29.4572 9.79847 32.2132 7.83857 36.6205C3.85069 32.8818 1.37 27.6343 1.37 21.8251C1.37 10.4705 10.8428 1.2666 22.5286 1.2666C34.2143 1.2666 43.6872 10.4705 43.6872 21.8251C43.6872 27.6437 41.1991 32.898 37.2002 36.6376ZM22.5286 0.367554C10.3312 0.367554 0.444336 9.97445 0.444336 21.8251C0.444336 28.0228 3.14862 33.6075 7.47512 37.5247C11.4188 41.097 16.7105 43.2818 22.5286 43.2818C28.3365 43.2818 33.6199 41.1038 37.5627 37.5426C41.8993 33.6246 44.6138 28.0322 44.6138 21.8251C44.6138 9.97445 34.725 0.367554 22.5286 0.367554Z" fill="black"/>
</g>
</g>
<defs>
<clipPath id="clip0_322_66">
<rect width="45" height="43.3019" fill="white"/>
</clipPath>
</defs>
</svg>
