<svg xmlns="http://www.w3.org/2000/svg" xmlns:xlink="http://www.w3.org/1999/xlink" width="500" zoomAndPan="magnify" viewBox="0 0 375 374.999991" height="500" preserveAspectRatio="xMidYMid meet" version="1.0"><defs><clipPath id="fa257b962c"><path d="M 77 85.085938 L 192 85.085938 L 192 266 L 77 266 Z M 77 85.085938 " clip-rule="nonzero"/></clipPath><clipPath id="7ffeb60d68"><path d="M 56.152344 109 L 318.652344 109 L 318.652344 289.835938 L 56.152344 289.835938 Z M 56.152344 109 " clip-rule="nonzero"/></clipPath><clipPath id="333f8ba76a"><path d="M 183 85.085938 L 297 85.085938 L 297 266 L 183 266 Z M 183 85.085938 " clip-rule="nonzero"/></clipPath></defs><g clip-path="url(#fa257b962c)"><path fill="#202424" d="M 187.234375 265.746094 L 81.523438 265.746094 C 81.019531 265.746094 80.535156 265.648438 80.070312 265.457031 C 79.605469 265.261719 79.195312 264.988281 78.839844 264.632812 C 78.480469 264.273438 78.207031 263.863281 78.015625 263.398438 C 77.824219 262.933594 77.726562 262.449219 77.726562 261.945312 L 77.726562 88.882812 C 77.726562 88.378906 77.824219 87.894531 78.015625 87.429688 C 78.207031 86.964844 78.480469 86.554688 78.839844 86.195312 C 79.195312 85.839844 79.605469 85.566406 80.070312 85.375 C 80.535156 85.179688 81.019531 85.085938 81.523438 85.085938 L 162.824219 85.085938 C 163.746094 85.085938 164.667969 85.132812 165.585938 85.222656 C 166.507812 85.3125 167.417969 85.449219 168.324219 85.632812 C 169.230469 85.8125 170.125 86.039062 171.007812 86.304688 C 171.890625 86.574219 172.761719 86.886719 173.613281 87.242188 C 174.46875 87.59375 175.300781 87.988281 176.113281 88.425781 C 176.929688 88.863281 177.71875 89.335938 178.488281 89.851562 C 179.257812 90.363281 179.996094 90.914062 180.710938 91.5 C 181.425781 92.085938 182.109375 92.707031 182.761719 93.359375 C 183.414062 94.011719 184.035156 94.695312 184.621094 95.410156 C 185.207031 96.125 185.753906 96.867188 186.269531 97.632812 C 186.78125 98.402344 187.257812 99.191406 187.691406 100.007812 C 188.128906 100.824219 188.523438 101.65625 188.875 102.507812 C 189.230469 103.363281 189.542969 104.230469 189.8125 105.117188 C 190.078125 106 190.304688 106.894531 190.484375 107.800781 C 190.667969 108.707031 190.800781 109.621094 190.894531 110.539062 C 190.984375 111.457031 191.03125 112.378906 191.03125 113.304688 L 191.03125 261.945312 C 191.03125 262.449219 190.9375 262.933594 190.742188 263.398438 C 190.550781 263.863281 190.277344 264.273438 189.921875 264.632812 C 189.5625 264.988281 189.152344 265.261719 188.6875 265.457031 C 188.222656 265.648438 187.738281 265.746094 187.234375 265.746094 Z M 85.324219 258.144531 L 183.4375 258.144531 L 183.4375 113.304688 C 183.433594 112.628906 183.402344 111.957031 183.335938 111.285156 C 183.269531 110.613281 183.167969 109.945312 183.035156 109.28125 C 182.902344 108.621094 182.738281 107.964844 182.542969 107.320312 C 182.347656 106.675781 182.121094 106.039062 181.859375 105.417969 C 181.601562 104.792969 181.3125 104.183594 180.996094 103.589844 C 180.675781 102.992188 180.332031 102.414062 179.957031 101.851562 C 179.582031 101.292969 179.179688 100.75 178.75 100.230469 C 178.320312 99.707031 177.871094 99.207031 177.390625 98.730469 C 176.914062 98.253906 176.414062 97.800781 175.894531 97.371094 C 175.371094 96.941406 174.832031 96.542969 174.269531 96.164062 C 173.707031 95.789062 173.128906 95.445312 172.535156 95.125 C 171.941406 94.808594 171.332031 94.519531 170.707031 94.257812 C 170.085938 94 169.449219 93.773438 168.804688 93.578125 C 168.160156 93.378906 167.503906 93.214844 166.84375 93.082031 C 166.183594 92.953125 165.515625 92.851562 164.84375 92.785156 C 164.171875 92.71875 163.5 92.683594 162.824219 92.683594 L 85.324219 92.683594 Z M 85.324219 258.144531 " fill-opacity="1" fill-rule="nonzero"/></g><path fill="#202424" d="M 186.886719 109.183594 C 187.117188 110.546875 187.234375 111.921875 187.234375 113.304688 L 187.234375 116.78125 L 187.367188 116.78125 L 187.367188 113.304688 C 187.367188 111.921875 187.484375 110.546875 187.714844 109.183594 Z M 186.886719 109.183594 " fill-opacity="1" fill-rule="nonzero"/><g clip-path="url(#7ffeb60d68)"><path fill="#202424" d="M 304.730469 109.183594 L 293.078125 109.183594 L 293.078125 116.78125 L 304.730469 116.78125 C 305.136719 116.78125 305.539062 116.824219 305.9375 116.902344 C 306.339844 116.980469 306.726562 117.101562 307.101562 117.257812 C 307.476562 117.414062 307.835938 117.601562 308.171875 117.828125 C 308.511719 118.054688 308.824219 118.3125 309.113281 118.601562 C 309.402344 118.890625 309.65625 119.203125 309.882812 119.539062 C 310.109375 119.878906 310.300781 120.238281 310.457031 120.613281 C 310.613281 120.988281 310.730469 121.375 310.8125 121.777344 C 310.890625 122.175781 310.929688 122.578125 310.929688 122.984375 L 310.929688 276.03125 C 310.929688 276.441406 310.890625 276.84375 310.8125 277.242188 C 310.730469 277.640625 310.613281 278.03125 310.457031 278.40625 C 310.300781 278.78125 310.109375 279.140625 309.882812 279.476562 C 309.65625 279.816406 309.402344 280.128906 309.113281 280.417969 C 308.824219 280.707031 308.511719 280.960938 308.171875 281.1875 C 307.835938 281.414062 307.476562 281.605469 307.101562 281.761719 C 306.726562 281.917969 306.339844 282.035156 305.9375 282.117188 C 305.539062 282.195312 305.136719 282.234375 304.730469 282.238281 L 70.078125 282.238281 C 69.671875 282.234375 69.269531 282.195312 68.871094 282.117188 C 68.46875 282.035156 68.082031 281.917969 67.707031 281.761719 C 67.332031 281.605469 66.972656 281.414062 66.636719 281.1875 C 66.296875 280.960938 65.984375 280.707031 65.695312 280.417969 C 65.40625 280.128906 65.152344 279.816406 64.925781 279.476562 C 64.699219 279.140625 64.507812 278.78125 64.351562 278.40625 C 64.195312 278.03125 64.078125 277.640625 63.996094 277.242188 C 63.917969 276.84375 63.878906 276.441406 63.878906 276.03125 L 63.878906 122.984375 C 63.878906 122.578125 63.917969 122.175781 63.996094 121.777344 C 64.078125 121.375 64.195312 120.988281 64.351562 120.613281 C 64.507812 120.238281 64.699219 119.878906 64.925781 119.539062 C 65.152344 119.203125 65.40625 118.890625 65.695312 118.601562 C 65.984375 118.3125 66.296875 118.054688 66.636719 117.828125 C 66.972656 117.601562 67.332031 117.414062 67.707031 117.257812 C 68.082031 117.101562 68.46875 116.980469 68.871094 116.902344 C 69.269531 116.824219 69.671875 116.78125 70.078125 116.78125 L 81.523438 116.78125 L 81.523438 109.183594 L 70.078125 109.183594 C 69.171875 109.183594 68.277344 109.273438 67.386719 109.449219 C 66.5 109.628906 65.636719 109.890625 64.800781 110.238281 C 63.964844 110.585938 63.167969 111.011719 62.417969 111.515625 C 61.664062 112.019531 60.96875 112.589844 60.328125 113.230469 C 59.6875 113.871094 59.113281 114.566406 58.613281 115.320312 C 58.109375 116.074219 57.683594 116.871094 57.335938 117.707031 C 56.988281 118.542969 56.726562 119.40625 56.550781 120.292969 C 56.371094 121.183594 56.28125 122.078125 56.28125 122.984375 L 56.28125 276.03125 C 56.28125 276.9375 56.371094 277.835938 56.550781 278.726562 C 56.726562 279.613281 56.988281 280.476562 57.335938 281.3125 C 57.683594 282.148438 58.109375 282.945312 58.613281 283.699219 C 59.113281 284.449219 59.6875 285.148438 60.328125 285.789062 C 60.96875 286.429688 61.664062 287 62.417969 287.503906 C 63.171875 288.007812 63.964844 288.433594 64.800781 288.78125 C 65.636719 289.128906 66.5 289.390625 67.390625 289.566406 C 68.277344 289.746094 69.175781 289.835938 70.078125 289.835938 L 304.730469 289.835938 C 305.636719 289.835938 306.535156 289.746094 307.421875 289.566406 C 308.308594 289.390625 309.171875 289.128906 310.007812 288.78125 C 310.847656 288.433594 311.640625 288.007812 312.394531 287.503906 C 313.144531 287 313.84375 286.429688 314.484375 285.789062 C 315.125 285.148438 315.695312 284.449219 316.199219 283.699219 C 316.703125 282.945312 317.128906 282.148438 317.476562 281.3125 C 317.820312 280.476562 318.085938 279.613281 318.261719 278.726562 C 318.4375 277.835938 318.527344 276.9375 318.53125 276.03125 L 318.53125 122.984375 C 318.527344 122.078125 318.4375 121.183594 318.261719 120.292969 C 318.085938 119.40625 317.820312 118.542969 317.476562 117.707031 C 317.128906 116.867188 316.703125 116.074219 316.199219 115.320312 C 315.695312 114.566406 315.125 113.871094 314.484375 113.230469 C 313.84375 112.589844 313.144531 112.015625 312.394531 111.511719 C 311.640625 111.007812 310.84375 110.585938 310.007812 110.238281 C 309.171875 109.890625 308.308594 109.628906 307.421875 109.449219 C 306.53125 109.273438 305.636719 109.183594 304.730469 109.183594 Z M 304.730469 109.183594 " fill-opacity="1" fill-rule="nonzero"/></g><g clip-path="url(#333f8ba76a)"><path fill="#202424" d="M 293.078125 265.746094 L 187.367188 265.746094 C 186.863281 265.746094 186.378906 265.648438 185.914062 265.457031 C 185.449219 265.261719 185.039062 264.988281 184.679688 264.632812 C 184.324219 264.273438 184.050781 263.863281 183.859375 263.398438 C 183.664062 262.933594 183.570312 262.449219 183.570312 261.945312 L 183.570312 113.304688 C 183.570312 112.378906 183.617188 111.457031 183.707031 110.539062 C 183.796875 109.621094 183.933594 108.707031 184.117188 107.800781 C 184.296875 106.894531 184.523438 106 184.789062 105.117188 C 185.058594 104.230469 185.371094 103.363281 185.722656 102.507812 C 186.078125 101.65625 186.472656 100.820312 186.910156 100.007812 C 187.34375 99.191406 187.820312 98.402344 188.332031 97.632812 C 188.847656 96.863281 189.394531 96.125 189.980469 95.410156 C 190.566406 94.695312 191.1875 94.011719 191.839844 93.359375 C 192.492188 92.707031 193.175781 92.085938 193.890625 91.5 C 194.605469 90.914062 195.34375 90.363281 196.113281 89.851562 C 196.882812 89.335938 197.671875 88.863281 198.488281 88.425781 C 199.300781 87.988281 200.132812 87.59375 200.988281 87.242188 C 201.839844 86.886719 202.710938 86.574219 203.59375 86.304688 C 204.476562 86.039062 205.371094 85.8125 206.277344 85.632812 C 207.183594 85.449219 208.09375 85.3125 209.015625 85.222656 C 209.933594 85.132812 210.855469 85.085938 211.777344 85.085938 L 293.078125 85.085938 C 293.582031 85.085938 294.066406 85.179688 294.53125 85.375 C 294.996094 85.566406 295.40625 85.839844 295.765625 86.195312 C 296.121094 86.554688 296.394531 86.964844 296.585938 87.429688 C 296.78125 87.894531 296.875 88.378906 296.875 88.882812 L 296.875 261.945312 C 296.875 262.449219 296.78125 262.933594 296.585938 263.398438 C 296.394531 263.863281 296.121094 264.273438 295.765625 264.632812 C 295.40625 264.988281 294.996094 265.261719 294.53125 265.457031 C 294.066406 265.648438 293.582031 265.746094 293.078125 265.746094 Z M 191.167969 258.144531 L 289.28125 258.144531 L 289.28125 92.683594 L 211.777344 92.683594 C 211.101562 92.683594 210.429688 92.71875 209.757812 92.785156 C 209.085938 92.851562 208.421875 92.953125 207.757812 93.082031 C 207.097656 93.214844 206.441406 93.378906 205.796875 93.578125 C 205.152344 93.773438 204.515625 94 203.894531 94.257812 C 203.269531 94.519531 202.660156 94.804688 202.066406 95.125 C 201.46875 95.445312 200.894531 95.789062 200.332031 96.164062 C 199.769531 96.539062 199.230469 96.941406 198.707031 97.371094 C 198.1875 97.800781 197.6875 98.253906 197.210938 98.730469 C 196.730469 99.207031 196.28125 99.707031 195.851562 100.230469 C 195.421875 100.75 195.019531 101.292969 194.644531 101.851562 C 194.269531 102.414062 193.925781 102.992188 193.605469 103.589844 C 193.289062 104.183594 193 104.792969 192.742188 105.417969 C 192.480469 106.039062 192.253906 106.675781 192.058594 107.320312 C 191.863281 107.964844 191.695312 108.621094 191.566406 109.28125 C 191.433594 109.945312 191.332031 110.613281 191.265625 111.285156 C 191.199219 111.957031 191.164062 112.628906 191.164062 113.304688 Z M 191.167969 258.144531 " fill-opacity="1" fill-rule="nonzero"/></g><path fill="#202424" d="M 159.363281 130.566406 L 109.394531 130.566406 C 108.890625 130.566406 108.40625 130.46875 107.941406 130.277344 C 107.472656 130.082031 107.0625 129.808594 106.707031 129.453125 C 106.351562 129.097656 106.078125 128.683594 105.882812 128.21875 C 105.691406 127.753906 105.59375 127.269531 105.59375 126.765625 C 105.59375 126.261719 105.691406 125.777344 105.882812 125.3125 C 106.078125 124.847656 106.351562 124.433594 106.707031 124.078125 C 107.0625 123.722656 107.472656 123.449219 107.941406 123.253906 C 108.40625 123.0625 108.890625 122.964844 109.394531 122.964844 L 159.363281 122.964844 C 159.867188 122.964844 160.351562 123.0625 160.820312 123.253906 C 161.285156 123.449219 161.695312 123.722656 162.050781 124.078125 C 162.40625 124.433594 162.679688 124.847656 162.875 125.3125 C 163.066406 125.777344 163.164062 126.261719 163.164062 126.765625 C 163.164062 127.269531 163.066406 127.753906 162.875 128.21875 C 162.679688 128.683594 162.40625 129.097656 162.050781 129.453125 C 161.695312 129.808594 161.285156 130.082031 160.820312 130.277344 C 160.351562 130.46875 159.867188 130.566406 159.363281 130.566406 Z M 159.363281 130.566406 " fill-opacity="1" fill-rule="nonzero"/><path fill="#202424" d="M 159.363281 156.21875 L 109.394531 156.21875 C 108.890625 156.21875 108.40625 156.121094 107.941406 155.929688 C 107.472656 155.734375 107.0625 155.460938 106.707031 155.105469 C 106.351562 154.75 106.078125 154.339844 105.882812 153.871094 C 105.691406 153.40625 105.59375 152.921875 105.59375 152.417969 C 105.59375 151.914062 105.691406 151.429688 105.882812 150.964844 C 106.078125 150.5 106.351562 150.085938 106.707031 149.730469 C 107.0625 149.375 107.472656 149.101562 107.941406 148.90625 C 108.40625 148.714844 108.890625 148.617188 109.394531 148.617188 L 159.363281 148.617188 C 159.867188 148.617188 160.351562 148.714844 160.820312 148.90625 C 161.285156 149.101562 161.695312 149.375 162.050781 149.730469 C 162.40625 150.085938 162.679688 150.5 162.875 150.964844 C 163.066406 151.429688 163.164062 151.914062 163.164062 152.417969 C 163.164062 152.921875 163.066406 153.40625 162.875 153.871094 C 162.679688 154.339844 162.40625 154.75 162.050781 155.105469 C 161.695312 155.460938 161.285156 155.734375 160.820312 155.929688 C 160.351562 156.121094 159.867188 156.21875 159.363281 156.21875 Z M 159.363281 156.21875 " fill-opacity="1" fill-rule="nonzero"/><path fill="#202424" d="M 159.363281 181.871094 L 109.394531 181.871094 C 108.890625 181.871094 108.40625 181.773438 107.941406 181.582031 C 107.472656 181.386719 107.0625 181.113281 106.707031 180.757812 C 106.351562 180.398438 106.078125 179.988281 105.882812 179.523438 C 105.691406 179.058594 105.59375 178.574219 105.59375 178.070312 C 105.59375 177.566406 105.691406 177.082031 105.882812 176.617188 C 106.078125 176.148438 106.351562 175.738281 106.707031 175.382812 C 107.0625 175.027344 107.472656 174.753906 107.941406 174.558594 C 108.40625 174.367188 108.890625 174.269531 109.394531 174.269531 L 159.363281 174.269531 C 159.867188 174.269531 160.351562 174.367188 160.820312 174.558594 C 161.285156 174.753906 161.695312 175.027344 162.050781 175.382812 C 162.40625 175.738281 162.679688 176.148438 162.875 176.617188 C 163.066406 177.082031 163.164062 177.566406 163.164062 178.070312 C 163.164062 178.574219 163.066406 179.058594 162.875 179.523438 C 162.679688 179.988281 162.40625 180.398438 162.050781 180.757812 C 161.695312 181.113281 161.285156 181.386719 160.820312 181.582031 C 160.351562 181.773438 159.867188 181.871094 159.363281 181.871094 Z M 159.363281 181.871094 " fill-opacity="1" fill-rule="nonzero"/><path fill="#202424" d="M 159.363281 207.523438 L 109.394531 207.523438 C 108.890625 207.523438 108.40625 207.425781 107.941406 207.234375 C 107.472656 207.042969 107.0625 206.765625 106.707031 206.410156 C 106.351562 206.054688 106.078125 205.644531 105.882812 205.179688 C 105.691406 204.710938 105.59375 204.226562 105.59375 203.722656 C 105.59375 203.21875 105.691406 202.734375 105.882812 202.269531 C 106.078125 201.804688 106.351562 201.394531 106.707031 201.039062 C 107.0625 200.679688 107.472656 200.40625 107.941406 200.214844 C 108.40625 200.019531 108.890625 199.925781 109.394531 199.925781 L 159.363281 199.925781 C 159.867188 199.925781 160.351562 200.019531 160.820312 200.214844 C 161.285156 200.40625 161.695312 200.679688 162.050781 201.039062 C 162.40625 201.394531 162.679688 201.804688 162.875 202.269531 C 163.066406 202.734375 163.164062 203.21875 163.164062 203.722656 C 163.164062 204.226562 163.066406 204.710938 162.875 205.179688 C 162.679688 205.644531 162.40625 206.054688 162.050781 206.410156 C 161.695312 206.765625 161.285156 207.042969 160.820312 207.234375 C 160.351562 207.425781 159.867188 207.523438 159.363281 207.523438 Z M 159.363281 207.523438 " fill-opacity="1" fill-rule="nonzero"/><path fill="#202424" d="M 159.363281 233.175781 L 109.394531 233.175781 C 108.890625 233.175781 108.40625 233.082031 107.941406 232.886719 C 107.472656 232.695312 107.0625 232.421875 106.707031 232.0625 C 106.351562 231.707031 106.078125 231.296875 105.882812 230.832031 C 105.691406 230.367188 105.59375 229.882812 105.59375 229.378906 C 105.59375 228.875 105.691406 228.386719 105.882812 227.921875 C 106.078125 227.457031 106.351562 227.046875 106.707031 226.691406 C 107.0625 226.332031 107.472656 226.058594 107.941406 225.867188 C 108.40625 225.671875 108.890625 225.578125 109.394531 225.578125 L 159.363281 225.578125 C 159.867188 225.578125 160.351562 225.671875 160.820312 225.867188 C 161.285156 226.058594 161.695312 226.332031 162.050781 226.691406 C 162.40625 227.046875 162.679688 227.457031 162.875 227.921875 C 163.066406 228.386719 163.164062 228.875 163.164062 229.378906 C 163.164062 229.882812 163.066406 230.367188 162.875 230.832031 C 162.679688 231.296875 162.40625 231.707031 162.050781 232.0625 C 161.695312 232.421875 161.285156 232.695312 160.820312 232.886719 C 160.351562 233.082031 159.867188 233.175781 159.363281 233.175781 Z M 159.363281 233.175781 " fill-opacity="1" fill-rule="nonzero"/><path fill="#202424" d="M 265.207031 130.566406 L 215.234375 130.566406 C 214.730469 130.566406 214.246094 130.46875 213.78125 130.277344 C 213.316406 130.082031 212.90625 129.808594 212.550781 129.453125 C 212.195312 129.097656 211.917969 128.683594 211.726562 128.21875 C 211.535156 127.753906 211.4375 127.269531 211.4375 126.765625 C 211.4375 126.261719 211.535156 125.777344 211.726562 125.3125 C 211.917969 124.847656 212.195312 124.433594 212.550781 124.078125 C 212.90625 123.722656 213.316406 123.449219 213.78125 123.253906 C 214.246094 123.0625 214.730469 122.964844 215.234375 122.964844 L 265.207031 122.964844 C 265.710938 122.964844 266.195312 123.0625 266.660156 123.253906 C 267.125 123.449219 267.539062 123.722656 267.894531 124.078125 C 268.25 124.433594 268.523438 124.847656 268.71875 125.3125 C 268.910156 125.777344 269.007812 126.261719 269.007812 126.765625 C 269.007812 127.269531 268.910156 127.753906 268.71875 128.21875 C 268.523438 128.683594 268.25 129.097656 267.894531 129.453125 C 267.539062 129.808594 267.125 130.082031 266.660156 130.277344 C 266.195312 130.46875 265.710938 130.566406 265.207031 130.566406 Z M 265.207031 130.566406 " fill-opacity="1" fill-rule="nonzero"/><path fill="#202424" d="M 265.207031 156.21875 L 215.234375 156.21875 C 214.730469 156.21875 214.246094 156.121094 213.78125 155.929688 C 213.316406 155.734375 212.90625 155.460938 212.550781 155.105469 C 212.195312 154.75 211.917969 154.339844 211.726562 153.871094 C 211.535156 153.40625 211.4375 152.921875 211.4375 152.417969 C 211.4375 151.914062 211.535156 151.429688 211.726562 150.964844 C 211.917969 150.5 212.195312 150.085938 212.550781 149.730469 C 212.90625 149.375 213.316406 149.101562 213.78125 148.90625 C 214.246094 148.714844 214.730469 148.617188 215.234375 148.617188 L 265.207031 148.617188 C 265.710938 148.617188 266.195312 148.714844 266.660156 148.90625 C 267.125 149.101562 267.539062 149.375 267.894531 149.730469 C 268.25 150.085938 268.523438 150.5 268.71875 150.964844 C 268.910156 151.429688 269.007812 151.914062 269.007812 152.417969 C 269.007812 152.921875 268.910156 153.40625 268.71875 153.871094 C 268.523438 154.339844 268.25 154.75 267.894531 155.105469 C 267.539062 155.460938 267.125 155.734375 266.660156 155.929688 C 266.195312 156.121094 265.710938 156.21875 265.207031 156.21875 Z M 265.207031 156.21875 " fill-opacity="1" fill-rule="nonzero"/><path fill="#202424" d="M 265.207031 181.871094 L 215.234375 181.871094 C 214.730469 181.871094 214.246094 181.773438 213.78125 181.582031 C 213.316406 181.386719 212.90625 181.113281 212.550781 180.757812 C 212.195312 180.398438 211.917969 179.988281 211.726562 179.523438 C 211.535156 179.058594 211.4375 178.574219 211.4375 178.070312 C 211.4375 177.566406 211.535156 177.082031 211.726562 176.617188 C 211.917969 176.148438 212.195312 175.738281 212.550781 175.382812 C 212.90625 175.027344 213.316406 174.753906 213.78125 174.558594 C 214.246094 174.367188 214.730469 174.269531 215.234375 174.269531 L 265.207031 174.269531 C 265.710938 174.269531 266.195312 174.367188 266.660156 174.558594 C 267.125 174.753906 267.539062 175.027344 267.894531 175.382812 C 268.25 175.738281 268.523438 176.148438 268.71875 176.617188 C 268.910156 177.082031 269.007812 177.566406 269.007812 178.070312 C 269.007812 178.574219 268.910156 179.058594 268.71875 179.523438 C 268.523438 179.988281 268.25 180.398438 267.894531 180.757812 C 267.539062 181.113281 267.125 181.386719 266.660156 181.582031 C 266.195312 181.773438 265.710938 181.871094 265.207031 181.871094 Z M 265.207031 181.871094 " fill-opacity="1" fill-rule="nonzero"/><path fill="#202424" d="M 265.207031 207.523438 L 215.234375 207.523438 C 214.730469 207.523438 214.246094 207.425781 213.78125 207.234375 C 213.316406 207.042969 212.90625 206.765625 212.550781 206.410156 C 212.195312 206.054688 211.917969 205.644531 211.726562 205.179688 C 211.535156 204.710938 211.4375 204.226562 211.4375 203.722656 C 211.4375 203.21875 211.535156 202.734375 211.726562 202.269531 C 211.917969 201.804688 212.195312 201.394531 212.550781 201.039062 C 212.90625 200.679688 213.316406 200.40625 213.78125 200.214844 C 214.246094 200.019531 214.730469 199.925781 215.234375 199.925781 L 265.207031 199.925781 C 265.710938 199.925781 266.195312 200.019531 266.660156 200.214844 C 267.125 200.40625 267.539062 200.679688 267.894531 201.039062 C 268.25 201.394531 268.523438 201.804688 268.71875 202.269531 C 268.910156 202.734375 269.007812 203.21875 269.007812 203.722656 C 269.007812 204.226562 268.910156 204.710938 268.71875 205.179688 C 268.523438 205.644531 268.25 206.054688 267.894531 206.410156 C 267.539062 206.765625 267.125 207.042969 266.660156 207.234375 C 266.195312 207.425781 265.710938 207.523438 265.207031 207.523438 Z M 265.207031 207.523438 " fill-opacity="1" fill-rule="nonzero"/><path fill="#202424" d="M 265.207031 233.175781 L 215.234375 233.175781 C 214.730469 233.175781 214.246094 233.082031 213.78125 232.886719 C 213.316406 232.695312 212.90625 232.421875 212.550781 232.0625 C 212.195312 231.707031 211.917969 231.296875 211.726562 230.832031 C 211.535156 230.367188 211.4375 229.882812 211.4375 229.378906 C 211.4375 228.875 211.535156 228.386719 211.726562 227.921875 C 211.917969 227.457031 212.195312 227.046875 212.550781 226.691406 C 212.90625 226.332031 213.316406 226.058594 213.78125 225.867188 C 214.246094 225.671875 214.730469 225.578125 215.234375 225.578125 L 265.207031 225.578125 C 265.710938 225.578125 266.195312 225.671875 266.660156 225.867188 C 267.125 226.058594 267.539062 226.332031 267.894531 226.691406 C 268.25 227.046875 268.523438 227.457031 268.71875 227.921875 C 268.910156 228.386719 269.007812 228.875 269.007812 229.378906 C 269.007812 229.882812 268.910156 230.367188 268.71875 230.832031 C 268.523438 231.296875 268.25 231.707031 267.894531 232.0625 C 267.539062 232.421875 267.125 232.695312 266.660156 232.886719 C 266.195312 233.082031 265.710938 233.175781 265.207031 233.175781 Z M 265.207031 233.175781 " fill-opacity="1" fill-rule="nonzero"/></svg>