<?xml version="1.0" standalone="no"?>
<!DOCTYPE svg PUBLIC "-//W3C//DTD SVG 20010904//EN"
 "http://www.w3.org/TR/2001/REC-SVG-20010904/DTD/svg10.dtd">
<svg version="1.0" xmlns="http://www.w3.org/2000/svg"
 width="1230.000000pt" height="1280.000000pt" viewBox="0 0 1230.000000 1280.000000"
 preserveAspectRatio="xMidYMid meet">
<metadata>
Created by potrace 1.15, written by Peter Selinger 2001-2017
</metadata>
<g transform="translate(0.000000,1280.000000) scale(0.100000,-0.100000)"
fill="#000000" stroke="none">
<path d="M6720 12794 c-215 -26 -415 -78 -715 -186 -276 -100 -367 -144 -480
-235 -130 -104 -201 -124 -307 -83 -66 25 -120 26 -141 2 -30 -33 -55 -107
-82 -237 -37 -184 -49 -207 -132 -247 -37 -18 -75 -44 -86 -59 -12 -17 -25
-76 -42 -192 -13 -92 -27 -178 -31 -190 -18 -60 -60 -69 -184 -42 -89 20 -117
18 -141 -6 -29 -29 -22 -65 37 -190 25 -55 44 -102 42 -104 -2 -3 -37 11 -77
30 -83 40 -97 42 -109 18 -12 -24 -11 -28 80 -185 107 -185 156 -249 225 -295
l58 -39 3 -204 c2 -156 -1 -205 -10 -212 -22 -14 -69 2 -184 63 -207 110 -281
127 -589 139 -158 5 -289 16 -385 31 -207 32 -481 32 -629 0 -233 -50 -537
-201 -794 -394 -233 -175 -457 -427 -613 -689 -306 -515 -524 -1132 -653
-1848 -52 -288 -53 -298 -61 -1060 -8 -703 -11 -773 -46 -995 -55 -359 -187
-761 -477 -1461 -141 -341 -190 -526 -191 -724 -1 -102 2 -121 23 -165 27 -55
199 -235 225 -235 24 0 22 97 -2 123 -25 28 -22 167 7 277 31 120 117 291 205
407 78 103 152 181 162 171 3 -4 -15 -91 -40 -195 -88 -365 -88 -402 12 -783
68 -260 76 -435 30 -634 -26 -111 -64 -207 -173 -434 -119 -245 -130 -284
-130 -452 1 -139 1 -140 60 -335 23 -76 28 -109 28 -210 1 -144 -14 -217 -85
-393 -47 -117 -56 -171 -32 -179 17 -6 319 297 350 352 26 45 29 61 32 160 3
114 -7 171 -57 307 -26 72 -27 141 -1 193 11 22 47 76 80 120 32 44 105 170
161 280 170 332 249 479 270 500 19 19 19 19 19 -25 0 -65 -19 -256 -31 -320
-6 -30 -42 -164 -80 -298 -142 -496 -163 -614 -135 -735 19 -81 54 -150 141
-282 78 -118 95 -170 93 -285 -1 -52 3 -94 10 -107 l13 -23 2464 0 2464 0 11
43 c25 98 68 203 155 377 130 261 139 290 138 425 0 94 -6 128 -36 235 -93
330 -220 569 -501 944 -339 453 -517 773 -726 1311 -56 145 -104 239 -180 355
-100 151 -169 231 -395 455 -288 286 -345 376 -345 546 0 64 6 96 36 181 48
134 120 287 178 377 101 157 135 247 172 461 44 255 81 359 148 418 78 68 126
81 353 92 216 10 256 23 353 116 108 103 137 203 89 309 -33 75 -30 144 14
241 19 44 41 98 48 121 11 39 10 45 -7 64 -10 12 -31 27 -46 35 -47 24 -51 45
-17 95 16 24 29 56 29 72 0 15 -25 77 -55 137 -30 60 -55 121 -55 135 0 57 42
106 148 171 38 23 75 54 86 73 40 69 12 161 -80 261 -30 32 -54 60 -54 63 0 2
20 -3 44 -11 66 -24 109 -8 222 83 57 46 102 42 200 -19 190 -117 192 -118
259 -125 83 -9 104 -28 140 -134 33 -98 64 -143 104 -152 36 -8 51 -25 86 -95
77 -156 240 -351 326 -389 102 -47 146 -25 482 232 34 26 59 37 83 37 19 0 34
-5 34 -11 0 -6 -18 -36 -40 -67 -59 -82 -65 -114 -39 -213 25 -99 21 -134 -47
-338 -54 -160 -97 -258 -183 -411 -135 -241 -230 -467 -356 -846 -133 -400
-230 -753 -300 -1099 -46 -225 -62 -358 -76 -605 -12 -211 -12 -220 27 -1090
7 -179 17 -554 20 -835 7 -542 0 -744 -37 -1085 -34 -311 -123 -799 -164 -896
-8 -20 -15 -38 -15 -40 0 -2 1087 -4 2415 -4 l2414 0 7 38 c5 31 258 877 533
1787 38 127 122 410 186 630 145 496 225 755 321 1045 131 394 136 510 34 826
-70 216 -77 313 -61 839 19 653 15 809 -29 1023 -58 279 -198 561 -395 797
-287 343 -574 612 -925 867 -187 136 -323 270 -452 442 -78 105 -100 143 -147
262 -35 87 -39 105 -31 131 13 35 2 70 -65 228 -80 187 -112 250 -158 312 -79
107 -243 226 -356 259 -97 29 -202 0 -309 -85 -69 -55 -89 -62 -135 -46 -55
19 -112 61 -174 129 -86 96 -108 153 -138 355 -54 368 -116 575 -271 915 -82
178 -109 256 -148 433 -109 492 -198 695 -464 1053 -228 308 -453 461 -780
530 -94 20 -382 35 -472 24z m-1506 -3608 c44 -18 65 -56 119 -216 90 -265
109 -375 105 -595 -2 -80 -5 -145 -8 -145 -12 1 -131 170 -159 226 -44 89 -54
144 -46 254 8 121 -1 157 -81 333 -41 90 -59 139 -51 142 7 2 19 6 27 8 28 10
60 7 94 -7z m-3965 -6388 c-2 -97 -17 -121 -18 -30 -1 49 3 82 9 82 6 0 9 -23
9 -52z m849 -2771 c2 -12 -3 -17 -17 -17 -12 0 -21 6 -21 13 0 31 32 34 38 4z"/>
</g>
</svg>
